<svg width="17" height="18" viewBox="0 0 17 18" xmlns="http://www.w3.org/2000/svg"><title>css</title><g id="Symbols" fill="none" fill-rule="evenodd"><g id="css" transform="translate(0 1)"><circle id="Oval" stroke="#FFF" cx="8.465" cy="7.991" r="7.965"/><path d="M4.678 4.815h7.6l-.716 7.568-3.084.863-3.114-.9-.686-7.531zm1.537 2.47l-.104-.927h4.735l-.1.914-2.317 1.03 2.222-.015-.228 2.787-1.943.543-1.94-.568-.098-1.432.926-.012.049.753 1.077.321 1.083-.308.148-1.198-3.283-.012-.117-.899 2.302-.961-2.412-.017z" id="Combined-Shape" fill="#FFF"/><path id="Shape" fill="#FFF" d="M7.26 3.326V2.82H6.062v1.378H7.26V3.69h-.692v-.365zM8.837 2.82H7.69v.506l.426.365h-.426v.507h1.148V3.69L8.4 3.326h.438zM10.414 2.82H9.266v.506l.426.365h-.426v.507h1.148V3.69l-.438-.365h.438z"/></g></g></svg>