<svg width="16" height="16" viewBox="0 0 16 16" xmlns="http://www.w3.org/2000/svg"><title>Git</title><g id="Symbols" fill="none" fill-rule="evenodd"><g id="Git" fill="#FFF"><path d="M7.987 15.992C3.573 15.976.041 12.36.08 7.925.115 3.572 3.63-.045 8.102.008c4.37.051 7.87 3.66 7.818 8.086-.048 4.335-3.531 7.895-7.933 7.898zM6.86 11.84a1.438 1.438 0 0 0-.099-.016c-.609-.086-1.18-.267-1.69-.63A2.485 2.485 0 0 1 4.055 9.64c-.14-.653-.086-1.313.016-1.966.07-.45.223-.874.574-1.196.05-.047.048-.086.022-.15-.191-.528-.169-1.06-.01-1.593.032-.105.083-.15.195-.108.134.047.27.089.395.162.341.2.602.478.832.794.057.076.096.089.175.035.198-.137.43-.179.657-.22.548-.102 1.1-.083 1.65-.057.323.015.641.073.947.188.096.035.182.159.271.111.09-.044.144-.166.214-.248.28-.338.602-.619 1.036-.756.14-.044.204-.022.252.128.159.52.181 1.032-.02 1.542-.031.08-.025.137.042.198.264.245.417.56.497.908.137.593.172 1.199.134 1.804-.038.58-.226 1.11-.615 1.556-.523.599-1.205.895-1.973 1.026l-.277.048c.226.354.334.72.337 1.115.004.456 0 .915 0 1.37v.893c.485-.048 1.39-.37 2.021-.714 2.942-1.603 4.427-4.914 3.678-8.194-.886-3.901-4.746-6.365-8.647-5.52-3.684.8-6.234 4.35-5.68 8.251.259 1.814 1.09 3.331 2.468 4.539a7.146 7.146 0 0 0 3.139 1.603c.092.022.134.016.13-.095a23.117 23.117 0 0 1 0-.94c0-.106-.019-.138-.133-.115-.207.041-.421.063-.635.05-.675-.035-1.223-.302-1.61-.876-.13-.194-.203-.42-.327-.615-.22-.341-.415-.701-.781-.921-.048-.029-.105-.074-.077-.14.026-.064.096-.055.153-.061.408-.032.743.121 1.02.414.147.157.24.35.367.52a1.716 1.716 0 0 0 1.896.567c.096-.035.124-.083.137-.181.038-.335.102-.663.335-.957z" id="Shape"/></g></g></svg>