<svg width="18" height="18" viewBox="0 0 18 18" xmlns="http://www.w3.org/2000/svg"><title>html</title><g id="Symbols" fill="none" fill-rule="evenodd"><g id="html" transform="translate(1 1)"><circle id="Oval" stroke="#FFF" cx="7.965" cy="7.991" r="7.965"/><path d="M4.178 4.815h7.6l-.716 7.568-3.084.863-3.114-.9-.686-7.531zm6.168 1.543l-.1.914H6.618l.087.926 3.432.09-.228 2.786-1.943.543-1.94-.568-.1-1.432.927-.012.05.753 1.076.321 1.084-.308.148-1.198-3.284-.012-.315-2.803h4.735z" id="Combined-Shape" fill="#FFF"/><path id="Shape" fill="#FFF" d="M7.847 2.76H6.512v.507h.414v.93h.506v-.93h.415zM5.784 2.76v.466h-.346v-.465h-.506v1.437h.506v-.466h.346v.466h.506V2.76zM10.414 3.691v-.93h-.506v1.437h1.334V3.69zM9.18 2.76l-.328.466-.277-.465h-.507v1.437h.507v-.593l.277.34.328-.414v.667h.506V2.76z"/></g></g></svg>