<svg width="18" height="18" viewBox="0 0 18 18" xmlns="http://www.w3.org/2000/svg"><title>Illustrator</title><g id="Symbols" fill="none" fill-rule="evenodd"><g id="Illustrator" transform="translate(1 1)"><circle id="Oval" stroke="#FFF" cx="8" cy="8" r="8"/><path d="M5.92 9.424L5.376 11.2H4.192l2-6.256h1.456L9.696 11.2H8.464l-.56-1.776H5.92zm1.792-.864l-.496-1.536c-.128-.384-.224-.8-.32-1.168H6.88c-.096.368-.192.8-.304 1.168l-.48 1.536h1.616zM11.36 5.424c0 .336-.256.608-.656.608-.384 0-.624-.272-.624-.608 0-.352.256-.624.64-.624s.624.272.64.624zM10.144 11.2V6.688h1.152V11.2h-1.152z" id="Shape" fill="#FFF"/></g></g></svg>