<svg width="18" height="18" viewBox="0 0 18 18" xmlns="http://www.w3.org/2000/svg"><title>javascript</title><g id="Symbols" fill="none" fill-rule="evenodd"><g id="javascript" transform="translate(1 1)"><circle id="Oval" stroke="#FFF" cx="8" cy="8" r="8"/><path d="M5.504 4.896h1.392v3.92c0 1.76-.848 2.384-2.192 2.384-.336 0-.752-.048-1.024-.144l.16-1.136c.192.064.448.112.72.112.592 0 .96-.272.96-1.216l-.016-3.92zM8.128 9.664c.368.192.96.384 1.552.384.64 0 .976-.272.976-.688 0-.384-.288-.608-1.04-.864-1.024-.368-1.712-.944-1.712-1.856 0-1.04.896-1.84 2.352-1.84.704 0 1.216.144 1.584.32l-.32 1.12a3.011 3.011 0 0 0-1.28-.288c-.608 0-.896.288-.896.592 0 .4.336.576 1.152.88 1.088.4 1.6.976 1.6 1.856 0 1.04-.784 1.92-2.496 1.92-.704 0-1.408-.192-1.76-.384l.288-1.152z" id="Shape" fill="#FFF"/></g></g></svg>