<svg width="16" height="16" viewBox="0 0 16 16" xmlns="http://www.w3.org/2000/svg"><title>jquery</title><g id="Symbols" fill="none" fill-rule="evenodd"><g id="jquery" fill="#FFF"><path d="M8 16A8 8 0 1 0 8 0a8 8 0 0 0 0 16zm0-.96A7.04 7.04 0 1 0 8 .96a7.04 7.04 0 0 0 0 14.08zM7.16 4.52c-.327.574-.368 1.28-.179 1.91a3.18 3.18 0 0 0 1.037 1.534l.031.025a3.541 3.541 0 0 0 .203.15l.03.02c.034.023.068.045.103.065.006.005.013.008.02.012l.084.05.038.02.067.035c.043.022.087.044.132.064l.03.013.107.045.046.018.1.036.044.014c.047.016.095.03.143.043 1.092.294 2.116-.082 2.644-.872 0 0-.586 2.029-3.125 1.592-.05-.008-.096-.028-.143-.043l-.045-.015a3.34 3.34 0 0 1-.1-.036l-.046-.017a3.33 3.33 0 0 1-.107-.046l-.03-.012a3.184 3.184 0 0 1-.131-.064c-.031-.015-.052-.027-.073-.038l-.032-.018a3.755 3.755 0 0 1-.09-.052l-.015-.008a2.78 2.78 0 0 1-.102-.065l-.03-.02-.062-.044a3.498 3.498 0 0 1-.142-.107l-.03-.025a3.416 3.416 0 0 1-.25-.227l-.029-.03a3.051 3.051 0 0 1-.11-.118c-.098-.088-.18-.219-.254-.328a3.278 3.278 0 0 1-.217-.377c-.384-.777-.41-1.76.081-2.495l.402-.589zm-1.982.745c-.598 1.201-.33 2.664.42 3.725a5.188 5.188 0 0 0 .307.391l.104.114.031.032a3.588 3.588 0 0 0 .224.219 6.175 6.175 0 0 0 .283.237l.094.07.033.024.1.07.038.026.14.089.037.021c.035.022.071.043.107.063l.06.033.09.047.034.017c.039.02.078.038.117.056l.027.013.138.06.036.014a4.446 4.446 0 0 0 .33.117c.05.016.1.032.151.044 1.35.319 2.773.033 3.576-1.052 0 0-.956 2.674-4.244 2.051-.052-.01-.101-.029-.152-.044l-.035-.011a4.398 4.398 0 0 1-.469-.18l-.025-.013a4.751 4.751 0 0 1-.12-.057l-.03-.016-.093-.049-.059-.031c-.035-.02-.07-.04-.105-.062l-.039-.022a4.967 4.967 0 0 1-.14-.09l-.04-.027-.089-.061-.043-.032a4.614 4.614 0 0 1-.219-.17l-.04-.034a5.831 5.831 0 0 1-.1-.087l-.018-.016a4.018 4.018 0 0 1-.11-.105c-.012-.01-.022-.021-.033-.032a4.585 4.585 0 0 1-.516-.61l-.014-.02a4.291 4.291 0 0 1-.086-.128l-.024-.04a4.098 4.098 0 0 1-.058-.093l-.028-.048a4.305 4.305 0 0 1-.05-.089l-.027-.05-.015-.028-.024-.048-.038-.077c-.52-1.078-.604-2.398.076-3.412l.53-.699zM8.751 4.16c-.401.752-.02 1.675.595 2.16a2.029 2.029 0 0 0 .71.357c.686.173 1.246.054 1.58-.444-.102.151-.482 1.179-1.884.898-.031-.006-.06-.018-.09-.027-.01-.003-.02-.006-.028-.01l-.063-.022a2.043 2.043 0 0 1-1.155-1.12c-.2-.489-.172-1.039.118-1.482l.217-.31z" id="Oval-1"/></g></g></svg>