<svg width="18" height="18" viewBox="0 0 18 18" xmlns="http://www.w3.org/2000/svg"><title>Photoshop</title><g id="Symbols" fill="none" fill-rule="evenodd"><g id="Photoshop" transform="translate(1 1)"><circle id="Oval" stroke="#FFF" cx="8" cy="8" r="8"/><path d="M4.32 4.928c.416-.08.976-.128 1.744-.128.832 0 1.456.176 1.856.512.368.304.608.8.608 1.392 0 .592-.192 1.088-.544 1.424C7.536 8.576 6.816 8.8 6 8.8a5.31 5.31 0 0 1-.56-.032v2.352H4.32V4.928zM5.456 7.84c.144.032.32.048.56.048.848 0 1.376-.416 1.376-1.152 0-.704-.48-1.072-1.28-1.072-.32 0-.544.032-.656.048V7.84zM9.04 10.064c.256.16.752.32 1.168.32.496 0 .72-.208.72-.496 0-.304-.192-.464-.736-.656-.88-.304-1.248-.784-1.248-1.312 0-.8.656-1.424 1.712-1.424.496 0 .944.128 1.2.272l-.224.816a2.03 2.03 0 0 0-.96-.256c-.416 0-.624.192-.624.48s.208.432.784.624c.816.304 1.2.72 1.2 1.392 0 .816-.64 1.408-1.84 1.408-.544 0-1.04-.128-1.376-.32l.224-.848z" id="Shape" fill="#FFF"/></g></g></svg>