<svg width="18" height="18" viewBox="0 0 18 18" xmlns="http://www.w3.org/2000/svg"><title>Premiere</title><g id="Symbols" fill="none" fill-rule="evenodd"><g id="Premiere" transform="translate(1 1)"><circle id="Oval" stroke="#FFF" cx="8" cy="8" r="8"/><path d="M6.32 4.64c-.608 0-1.136.048-1.568.128l-.064.016v6.256h1.168V8.72c.112.016.256.016.416.016.768 0 1.424-.24 1.824-.688.336-.352.496-.848.496-1.456 0-.576-.208-1.088-.576-1.424-.384-.352-.944-.528-1.696-.528zm1.088 2c0 .672-.416 1.056-1.152 1.056-.144 0-.304 0-.416-.032V5.696c.096-.016.256-.032.512-.032.688 0 1.056.352 1.056.976zM11.616 6.336c-.08-.016-.144-.032-.256-.032-.368 0-.816.224-1.072.736l-.032-.64h-1.04v.08c.016.384.032.8.032 1.44v3.12h1.168v-2.4c0-.128.016-.24.032-.336.096-.496.4-.784.832-.784.112 0 .192.016.288.032l.096.016V6.336h-.048z" id="Shape" fill="#FFF"/></g></g></svg>