<svg width="18" height="18" viewBox="0 0 18 18" xmlns="http://www.w3.org/2000/svg"><title>RWD</title><g id="Symbols" fill="none" fill-rule="evenodd"><g id="RWD" transform="translate(1 1)"><circle id="Oval" stroke="#FFF" cx="8" cy="8" r="8"/><g id="_x32_3" transform="translate(3 4.5)" fill="#FFF"><path d="M5.378 6.208l.107.23s0 .067-.045.067H2.864c-.044 0-.055-.067-.055-.067l.107-.23h2.462zm-.006-.488H2.91v.432h2.463V5.72zM.475 4.614V.58H7.62v.46h.469V.247c0-.123-.101-.224-.224-.224H.249c-.123 0-.224.1-.224.224V5.363c0 .138.1.252.224.252h6.02v-1H.475z" id="Shape"/><path d="M8.907 1.31h-1.83a.542.542 0 0 0-.54.54v4.115c0 .297.243.54.54.54h1.83c.297 0 .54-.243.54-.54V1.849a.542.542 0 0 0-.54-.54zm-1.247.164c0-.022.03-.04.066-.04h.533c.036 0 .066.018.066.04v.02c0 .022-.03.04-.066.04h-.533c-.036 0-.066-.018-.066-.04v-.02zm.395.189a.063.063 0 1 1-.125 0 .063.063 0 0 1 .125 0zm.27 4.567c0 .037-.03.067-.066.067h-.533a.067.067 0 0 1-.066-.067v-.033c0-.036.03-.066.066-.066h.533c.036 0 .066.03.066.066v.033zm.898-.265H6.8V1.849h2.423v4.116z" id="Shape"/></g></g></g></svg>