<svg width="17" height="18" viewBox="0 0 17 18" xmlns="http://www.w3.org/2000/svg"><title>sass</title><g id="Symbols" fill="none" fill-rule="evenodd"><g id="sass" transform="translate(0 1)"><circle id="Oval" stroke="#FFF" cx="8.463" cy="8.046" r="7.82"/><path d="M12.56 4.554a1.275 1.275 0 0 0-.226-.53c-.396-.544-1.106-.742-1.742-.814a6.264 6.264 0 0 0-2.181.136c-.196.048-.39.107-.579.176a5.97 5.97 0 0 0-1.262.669 9.58 9.58 0 0 0-1.066.807c-.42.377-.755.857-.954 1.386-.106.3-.187.653-.119 1.04.063.357.214.675.398.936.183.263.39.48.594.67.39.366.774.661 1.073.967a7.295 7.295 0 0 0-.346.151c-.1.051-.201.097-.304.155a3.427 3.427 0 0 0-.285.203 3.395 3.395 0 0 0-.518.498c-.157.194-.313.419-.383.724-.02.074-.024.157-.03.238 0 .075.001.148.015.228.022.156.08.334.206.486.12.15.315.262.458.294.153.059.313.07.472.077.316-.005.606-.1.87-.232.268-.137.5-.304.71-.552.114-.12.192-.266.27-.413.066-.144.113-.286.151-.442a1.869 1.869 0 0 0-.167-1.318c.056-.019.116-.042.17-.058.468-.141 1.074-.17 1.52.063.126.067.229.16.34.248.082.067.13.16.186.247.125.194.115.46.036.669-.04.103-.077.21-.165.281-.035.029-.237.122-.21.191.022.06.1.116.329-.021.485-.291.546-.944.28-1.402-.21-.357-.56-.596-.953-.709a2.83 2.83 0 0 0-.669-.105c-.2-.007-.401 0-.596.04-.057.013-.512.172-.526.154-.027-.036-.054-.072-.082-.106-.395-.461-.844-.8-1.222-1.162-.334-.311-.719-.722-.747-1.204-.034-.584.47-1.145.856-1.526.126-.124.26-.24.4-.347.625-.483 1.393-.865 2.14-1.116.213-.072.43-.132.65-.18.306-.067.628-.101.942-.1.442 0 .885.074 1.252.338a.806.806 0 0 1 .341.692c-.02.807-.794 1.449-1.472 1.748-.762.337-1.779.63-2.388.352-.3-.137-.585-.387-.667-.252-.06.1.594.54.66.575.594.32 1.537.23 2.26.013.796-.241 1.52-.763 1.956-1.477.25-.41.41-.917.324-1.386zm-5.548 6.447c0 .164-.035.339-.092.508a1.23 1.23 0 0 1-.24.383c-.222.242-.51.397-.756.422-.033.01-.06.001-.09 0-.029-.004-.06.003-.086-.007-.05-.018-.118-.03-.14-.046a.202.202 0 0 1-.062-.065.469.469 0 0 1-.04-.14c-.006-.028-.006-.064-.008-.093.002-.027-.001-.052.003-.08a.822.822 0 0 1 .043-.177c.044-.124.115-.25.197-.368a2.61 2.61 0 0 1 .582-.605c.168-.113.35-.218.531-.317.106.194.163.388.158.585z" id="Shape" fill="#FFF"/></g></g></svg>