<svg width="18" height="18" viewBox="0 0 18 18" xmlns="http://www.w3.org/2000/svg"><title>sketch</title><g id="Symbols" fill="none" fill-rule="evenodd"><g id="sketch" transform="translate(1 1)"><ellipse id="Oval" stroke="#FFF" cx="7.998" cy="7.91" rx="7.998" ry="7.91"/><path d="M11.866 6.15l-1.205-.904a.344.344 0 0 0-.091-.068l-.812-.608a.35.35 0 0 0-.21-.07H6.456a.352.352 0 0 0-.21.07L4.139 6.15a.342.342 0 0 0-.067.482l3.654 4.752a.349.349 0 0 0 .553 0l3.655-4.752a.342.342 0 0 0-.067-.483zm-5.293-.962H9.43l.394.295-.51.373-2.488-.02-.628-.368.374-.28zM4.835 6.49l.765-.574.637.374-.731 1.072-.67-.872zm3.167 4.118L6.1 8.135h3.804l-1.902 2.473zM6.285 7.447l.63-.922 2.335.018.655.904h-3.62zm4.317-.22l-.691-.951.492-.36.766.574-.567.737z" id="Shape" fill="#FFF"/></g></g></svg>