<?xml version="1.0" encoding="UTF-8"?>
<svg width="17px" height="18px" viewBox="0 0 17 18" version="1.1" xmlns="http://www.w3.org/2000/svg" xmlns:xlink="http://www.w3.org/1999/xlink">
    <!-- Generator: Sketch 41.1 (35376) - http://www.bohemiancoding.com/sketch -->
    <title>css</title>
    <desc>Created with Sketch.</desc>
    <defs></defs>
    <g id="Symbols" stroke="none" stroke-width="1" fill="none" fill-rule="evenodd">
        <g id="css" transform="translate(0.000000, 1.000000)">
            <circle id="Oval" stroke="#FFFFFF" cx="8.46474074" cy="7.99081481" r="7.96474074"></circle>
            <path d="M4.67837037,4.81481481 L12.2777778,4.81481481 L11.5616296,12.3828148 L8.47807407,13.2462222 L5.3642963,12.3457778 L4.67837037,4.81481481 Z M6.21525926,7.28414815 L6.11125926,6.35822222 L10.8457778,6.35822222 L10.7468148,7.2717037 L8.42918519,8.30133333 L10.6514074,8.28711111 L10.422963,11.0743704 L8.48044444,11.6174815 L6.54059259,11.0494815 L6.44162963,9.61748148 L7.36755556,9.60503704 L7.41674074,10.3582222 L8.49407407,10.6791111 L9.57733333,10.3706667 L9.72548148,9.17303704 L6.44162963,9.16059259 L6.32488889,8.26222222 L8.62681481,7.30103704 L6.21525926,7.28414815 Z" id="Combined-Shape" fill="#FFFFFF"></path>
            <polygon id="Shape" fill="#FFFFFF" points="7.2597037 3.32592593 7.2597037 2.81985185 6.56844444 2.81985185 6.11155556 2.81985185 6.06237037 2.81985185 6.06237037 4.19762963 6.11155556 4.19762963 6.56844444 4.19762963 7.2597037 4.19762963 7.2597037 3.69125926 6.56844444 3.69125926 6.56844444 3.32592593"></polygon>
            <polygon id="Shape" fill="#FFFFFF" points="8.83718519 2.81985185 7.68903704 2.81985185 7.68903704 3.32592593 8.11481481 3.69125926 7.68903704 3.69125926 7.68903704 4.19762963 8.83718519 4.19762963 8.83718519 3.69125926 8.39896296 3.32592593 8.83718519 3.32592593"></polygon>
            <polygon id="Shape" fill="#FFFFFF" points="10.4140741 2.81985185 9.26592593 2.81985185 9.26592593 3.32592593 9.6917037 3.69125926 9.26592593 3.69125926 9.26592593 4.19762963 10.4140741 4.19762963 10.4140741 3.69125926 9.97585185 3.32592593 10.4140741 3.32592593"></polygon>
        </g>
    </g>
</svg>