<?xml version="1.0" encoding="UTF-8"?>
<svg width="16px" height="16px" viewBox="0 0 16 16" version="1.1" xmlns="http://www.w3.org/2000/svg" xmlns:xlink="http://www.w3.org/1999/xlink">
    <!-- Generator: Sketch 41.1 (35376) - http://www.bohemiancoding.com/sketch -->
    <title>Git</title>
    <desc>Created with Sketch.</desc>
    <defs></defs>
    <g id="Symbols" stroke="none" stroke-width="1" fill="none" fill-rule="evenodd">
        <g id="Git" fill="#FFFFFF">
            <path d="M7.98712971,15.9923323 C3.57278708,15.9763961 0.0413129784,12.3588662 0.0795599904,7.92540004 C0.114619751,3.57161518 3.6301576,-0.0459147049 8.10187075,0.00826856199 C12.4715919,0.0592645779 15.9711935,3.66723271 15.9201974,8.09432434 C15.8723887,12.4289857 12.3887233,15.9891451 7.98712971,15.9923323 Z M6.85884286,11.8393443 C6.80784684,11.8297825 6.78553609,11.8265953 6.76003808,11.823408 C6.15127314,11.7373522 5.58075521,11.5556789 5.07079505,11.1923323 C4.52577513,10.8034877 4.19111378,10.2807785 4.05406198,9.64014107 C3.91382294,8.98675462 3.96800621,8.32699366 4.06999824,7.67360721 C4.14011776,7.22420482 4.29310581,6.80030043 4.64370342,6.47838808 C4.69469943,6.43057932 4.69151218,6.39233231 4.66601417,6.32858729 C4.47477911,5.79950362 4.49708987,5.26723271 4.65645242,4.73496179 C4.68832493,4.62978251 4.73932095,4.58516099 4.85087473,4.62659526 C4.98473927,4.67440402 5.12179107,4.71583828 5.24609385,4.78914506 C5.58712971,4.98994187 5.84848429,5.26723271 6.07796636,5.58277055 C6.13533688,5.65926458 6.17358389,5.67201358 6.25326517,5.61783031 C6.45087473,5.48077852 6.68354405,5.43934426 6.90983887,5.39791 C7.45804605,5.29591796 8.00944047,5.31504147 8.56083489,5.34053948 C8.88274724,5.35647573 9.20147234,5.41384625 9.50744844,5.52858729 C9.60306597,5.56364705 9.68912174,5.68794984 9.77836477,5.64014107 C9.8676078,5.59551956 9.92179107,5.47440402 9.99191059,5.39153549 C10.2723887,5.05368689 10.594301,4.7732088 11.0277672,4.63615701 C11.1680062,4.59153549 11.2317512,4.61384625 11.27956,4.76364705 C11.4389225,5.28316896 11.4612333,5.79631637 11.2604365,6.30627653 C11.228564,6.38595781 11.2349385,6.44332832 11.3018707,6.50388609 C11.5664126,6.74930442 11.7194006,7.06484227 11.7990819,7.41225263 C11.9361337,8.00508131 11.9711935,8.610659 11.9329464,9.21623669 C11.8946994,9.79631637 11.7066516,10.3254 11.317807,10.7716152 C10.7950978,11.3708184 10.1130261,11.6672327 9.34489864,11.79791 C9.25565561,11.8138463 9.16322533,11.8297825 9.0676078,11.8457188 C9.29390262,12.1995036 9.40226915,12.5660375 9.4054564,12.9612566 C9.40864366,13.4170335 9.4054564,13.8759976 9.4054564,14.3317745 L9.4054564,15.2242048 C9.88991856,15.1763961 10.7950978,14.8544837 11.4261735,14.5102606 C14.3680062,12.9070733 15.8532652,9.59551956 15.1042612,6.31583828 C14.2182054,2.41464306 10.3584445,-0.0491019559 6.45724923,0.795519558 C2.77278708,1.59551956 0.222986285,5.14611717 0.777567958,9.04731239 C1.03573529,10.8608582 1.8676078,12.3779897 3.24450023,13.5859578 C4.15286676,14.3827706 5.20465959,14.9150415 6.38394246,15.1891451 C6.47637274,15.2114558 6.517807,15.2050813 6.51461975,15.0935275 C6.50824525,14.7811769 6.50824525,14.4656391 6.51461975,14.1532885 C6.51461975,14.0481092 6.49549625,14.0162367 6.38075521,14.0385474 C6.17358389,14.0799817 5.96003808,14.1022925 5.74649226,14.0895435 C5.07079505,14.0544837 4.52258788,13.7867546 4.13693051,13.2130494 C4.00625322,13.0186271 3.93294644,12.7923323 3.80864366,12.59791 C3.58872334,12.2568741 3.39430103,11.8967148 3.02776716,11.6767945 C2.9799584,11.6481092 2.92258788,11.6034877 2.95127314,11.5365554 C2.97677115,11.4728104 3.04689067,11.4823721 3.10426119,11.4759976 C3.51222931,11.4441251 3.84689067,11.5971132 4.1241815,11.8903403 C4.27079505,12.0465156 4.36322533,12.2409379 4.49071537,12.4098622 C4.91461975,12.9740056 5.7241815,13.2162367 6.38712971,12.9771929 C6.48274724,12.9421331 6.5114325,12.8943243 6.5241815,12.7955196 C6.56242852,12.4608582 6.62617354,12.1325714 6.85884286,11.8393443 Z" id="Shape"></path>
        </g>
    </g>
</svg>