<?xml version="1.0" encoding="UTF-8"?>
<svg width="18px" height="18px" viewBox="0 0 18 18" version="1.1" xmlns="http://www.w3.org/2000/svg" xmlns:xlink="http://www.w3.org/1999/xlink">
    <!-- Generator: Sketch 41.1 (35376) - http://www.bohemiancoding.com/sketch -->
    <title>html</title>
    <desc>Created with Sketch.</desc>
    <defs></defs>
    <g id="Symbols" stroke="none" stroke-width="1" fill="none" fill-rule="evenodd">
        <g id="html" transform="translate(1.000000, 1.000000)">
            <circle id="Oval" stroke="#FFFFFF" cx="7.96474074" cy="7.99081481" r="7.96474074"></circle>
            <path d="M4.17837037,4.81481481 L11.7777778,4.81481481 L11.0616296,12.3828148 L7.97807407,13.2462222 L4.8642963,12.3457778 L4.17837037,4.81481481 Z M10.3457778,6.35822222 L10.2468148,7.2717037 L6.61718519,7.2717037 L6.7037037,8.19762963 L10.1357037,8.28711111 L9.90755556,11.0743704 L7.96474074,11.6174815 L6.02459259,11.0494815 L5.92592593,9.61748148 L6.85185185,9.60503704 L6.90133333,10.3582222 L7.97837037,10.6791111 L9.06162963,10.3706667 L9.20977778,9.17303704 L5.92592593,9.16059259 L5.61125926,6.35822222 L10.3457778,6.35822222 Z" id="Combined-Shape" fill="#FFFFFF"></path>
            <polygon id="Shape" fill="#FFFFFF" points="7.84681481 2.76088889 7.4322963 2.76088889 6.92622222 2.76088889 6.5117037 2.76088889 6.5117037 3.26725926 6.92622222 3.26725926 6.92622222 4.19762963 7.4322963 4.19762963 7.4322963 3.26725926 7.84681481 3.26725926"></polygon>
            <polygon id="Shape" fill="#FFFFFF" points="5.784 2.76088889 5.784 3.22607407 5.43822222 3.22607407 5.43822222 2.76088889 4.93214815 2.76088889 4.93214815 4.19762963 5.43822222 4.19762963 5.43822222 3.73244444 5.784 3.73244444 5.784 4.19762963 6.29007407 4.19762963 6.29007407 2.76088889"></polygon>
            <polygon id="Shape" fill="#FFFFFF" points="10.4136296 3.69125926 10.4136296 2.76088889 9.90755556 2.76088889 9.90755556 3.69125926 9.90755556 4.19762963 10.4136296 4.19762963 11.2423704 4.19762963 11.2423704 3.69125926"></polygon>
            <polygon id="Shape" fill="#FFFFFF" points="9.17955556 2.76088889 8.85214815 3.22607407 8.57451852 2.76088889 8.06844444 2.76088889 8.06844444 4.19762963 8.57451852 4.19762963 8.57451852 3.60503704 8.85214815 3.9442963 9.17955556 3.53096296 9.17955556 4.19762963 9.68562963 4.19762963 9.68562963 2.76088889"></polygon>
        </g>
    </g>
</svg>