<?xml version="1.0" encoding="UTF-8"?>
<svg width="18px" height="18px" viewBox="0 0 18 18" version="1.1" xmlns="http://www.w3.org/2000/svg" xmlns:xlink="http://www.w3.org/1999/xlink">
    <!-- Generator: Sketch 41.1 (35376) - http://www.bohemiancoding.com/sketch -->
    <title>illustrator</title>
    <desc>Created with Sketch.</desc>
    <defs></defs>
    <g id="Symbols" stroke="none" stroke-width="1" fill="none" fill-rule="evenodd">
        <g id="Illustrator" transform="translate(1.000000, 1.000000)">
            <circle id="Oval" stroke="#FFFFFF" cx="8" cy="8" r="8"></circle>
            <path d="M5.92,9.424 L5.376,11.2 L4.192,11.2 L6.192,4.944 L7.648,4.944 L9.696,11.2 L8.464,11.2 L7.904,9.424 L5.92,9.424 Z M7.712,8.56 L7.216,7.024 C7.088,6.64 6.992,6.224 6.896,5.856 L6.88,5.856 C6.784,6.224 6.688,6.656 6.576,7.024 L6.096,8.56 L7.712,8.56 Z" id="Shape" fill="#FFFFFF"></path>
            <path d="M11.36,5.424 C11.36,5.76 11.104,6.032 10.704,6.032 C10.32,6.032 10.08,5.76 10.08,5.424 C10.08,5.072 10.336,4.8 10.72,4.8 C11.104,4.8 11.344,5.072 11.36,5.424 Z M10.144,11.2 L10.144,6.688 L11.296,6.688 L11.296,11.2 L10.144,11.2 L10.144,11.2 Z" id="Shape" fill="#FFFFFF"></path>
        </g>
    </g>
</svg>