<?xml version="1.0" encoding="UTF-8"?>
<svg width="18px" height="18px" viewBox="0 0 18 18" version="1.1" xmlns="http://www.w3.org/2000/svg" xmlns:xlink="http://www.w3.org/1999/xlink">
    <!-- Generator: Sketch 41.1 (35376) - http://www.bohemiancoding.com/sketch -->
    <title>javascript</title>
    <desc>Created with Sketch.</desc>
    <defs></defs>
    <g id="Symbols" stroke="none" stroke-width="1" fill="none" fill-rule="evenodd">
        <g id="javascript" transform="translate(1.000000, 1.000000)">
            <circle id="Oval" stroke="#FFFFFF" cx="8" cy="8" r="8"></circle>
            <path d="M5.504,4.896 L6.896,4.896 L6.896,8.816 C6.896,10.576 6.048,11.2 4.704,11.2 C4.368,11.2 3.952,11.152 3.68,11.056 L3.84,9.92 C4.032,9.984 4.288,10.032 4.56,10.032 C5.152,10.032 5.52,9.76 5.52,8.816 L5.504,4.896 L5.504,4.896 Z" id="Shape" fill="#FFFFFF"></path>
            <path d="M8.128,9.664 C8.496,9.856 9.088,10.048 9.68,10.048 C10.32,10.048 10.656,9.776 10.656,9.36 C10.656,8.976 10.368,8.752 9.616,8.496 C8.592,8.128 7.904,7.552 7.904,6.64 C7.904,5.6 8.8,4.8 10.256,4.8 C10.96,4.8 11.472,4.944 11.84,5.12 L11.52,6.24 C11.28,6.128 10.832,5.952 10.24,5.952 C9.632,5.952 9.344,6.24 9.344,6.544 C9.344,6.944 9.68,7.12 10.496,7.424 C11.584,7.824 12.096,8.4 12.096,9.28 C12.096,10.32 11.312,11.2 9.6,11.2 C8.896,11.2 8.192,11.008 7.84,10.816 L8.128,9.664 Z" id="Shape" fill="#FFFFFF"></path>
        </g>
    </g>
</svg>