<?xml version="1.0" encoding="UTF-8"?>
<svg width="16px" height="16px" viewBox="0 0 16 16" version="1.1" xmlns="http://www.w3.org/2000/svg" xmlns:xlink="http://www.w3.org/1999/xlink">
    <!-- Generator: Sketch 41.1 (35376) - http://www.bohemiancoding.com/sketch -->
    <title>jquery</title>
    <desc>Created with Sketch.</desc>
    <defs></defs>
    <g id="Symbols" stroke="none" stroke-width="1" fill="none" fill-rule="evenodd">
        <g id="jquery" fill="#FFFFFF">
            <path d="M8,16 C12.4182782,16 16,12.4182782 16,8 C16,3.58172179 12.4182782,0 8,0 C3.58172179,0 0,3.58172179 0,8 C0,12.4182782 3.58172179,16 8,16 Z M8,15.04 C11.8880848,15.04 15.04,11.8880848 15.04,8 C15.04,4.11191517 11.8880848,0.96 8,0.96 C4.11191517,0.96 0.96,4.11191517 0.96,8 C0.96,11.8880848 4.11191517,15.04 8,15.04 Z M7.16018259,4.52030592 C6.83313184,5.09376454 6.79242384,5.80042608 6.98119795,6.42994339 C7.1613247,7.03693558 7.54017821,7.57220314 8.01815037,7.96393667 C8.02830781,7.97241322 8.03866426,7.98067978 8.04902074,7.98915885 C8.09393005,8.02472058 8.13943981,8.0598665 8.18624502,8.09335862 C8.20795405,8.10865792 8.23006115,8.12374973 8.25216912,8.13863491 C8.2625264,8.14566429 8.27248477,8.15310435 8.28284125,8.1599296 C8.31640371,8.18205078 8.3502623,8.20355126 8.38461936,8.22443184 C8.39129171,8.22856173 8.39816803,8.23228768 8.40473514,8.2362169 C8.4324223,8.25296253 8.46050429,8.26950154 8.48878614,8.28542067 C8.5015337,8.29224342 8.51437997,8.29907123 8.52712669,8.30588803 C8.5491343,8.31767222 8.57114272,8.32966304 8.59354925,8.34103312 C8.63706355,8.36336176 8.68118074,8.38465562 8.72599299,8.40491635 C8.73555325,8.40946963 8.7454137,8.41339037 8.75517219,8.4177345 C8.79092182,8.43344701 8.82697165,8.44853882 8.86341955,8.46301078 C8.87835834,8.46900618 8.89359405,8.47479072 8.90882976,8.48058291 C8.9420904,8.49319443 8.97565043,8.50518522 9.0094087,8.51655702 C9.02384819,8.52152186 9.03808947,8.5264799 9.05262851,8.53102726 C9.10013203,8.54653402 9.14793008,8.56100598 9.19642806,8.57423738 C10.2883648,8.86841856 11.3116119,8.49155501 11.84,7.70160138 C11.84,7.70160138 11.2538539,9.73074042 8.7148664,9.29410912 C8.66556813,9.28563258 8.6188657,9.26640579 8.57156448,9.25110736 C8.55652781,9.24635168 8.5417881,9.24118358 8.52675142,9.23622131 C8.49349082,9.22464458 8.46052877,9.21306618 8.42766541,9.20045552 C8.41232934,9.19466758 8.39679504,9.18887878 8.38145898,9.18288339 C8.34521421,9.16841142 8.30916438,9.15311216 8.27351347,9.13739962 C8.2638545,9.13326042 8.25398995,9.12933971 8.24443542,9.12499558 C8.19981978,9.10473568 8.15610234,9.08344016 8.11278301,9.06131981 C8.08191834,9.04580714 8.06100554,9.03422874 8.04009274,9.02285862 C8.02933734,9.01706986 8.01858275,9.01169091 8.00802723,9.00549229 C7.97774995,8.98853917 7.94757709,8.97096621 7.9178007,8.95318749 C7.91301853,8.95029987 7.90824534,8.94760701 7.90336118,8.94450768 C7.86880589,8.9236271 7.83484941,8.90191917 7.80128938,8.87959136 C7.79113197,8.87318272 7.78156762,8.86594928 7.77151299,8.859124 C7.75050147,8.84485952 7.7293896,8.83100742 7.70867584,8.81612224 C7.65769053,8.77953165 7.61187894,8.74438656 7.56696637,8.7086199 C7.55690848,8.70055744 7.5470537,8.69228074 7.53709126,8.68443085 C7.49227168,8.64763616 7.44816022,8.61021571 7.40543885,8.57134806 C7.36113322,8.5307944 7.32378957,8.4944079 7.28704304,8.45740154 C7.27728291,8.44747779 7.26751872,8.43776064 7.25796416,8.42763027 C7.22012611,8.38876349 7.18308106,8.3492768 7.14762838,8.30875533 C7.04983946,8.22068726 6.96817955,8.09022797 6.89448832,7.98065946 C6.81362707,7.86033645 6.74133002,7.73401805 6.67699834,7.60377046 C6.29340019,6.82690851 6.26671565,5.8436201 6.75845837,5.10907312 L7.16018259,4.52030592 Z M5.1784377,5.26500694 C4.57972842,6.46637392 4.84883354,7.92923533 5.59791763,8.98986275 C5.62500192,9.02847722 5.65265725,9.06649891 5.68096518,9.10460528 C5.68969418,9.11612186 5.6985047,9.12755379 5.70731526,9.13873165 C5.73081741,9.16974515 5.75491667,9.2005495 5.77921504,9.23094061 C5.78797907,9.24169085 5.7965449,9.25223446 5.80540602,9.2631913 C5.83797242,9.30308867 5.87123302,9.34257536 5.90529152,9.38123638 C5.94233334,9.42320166 5.97519667,9.45917578 6.00865635,9.49473411 C6.01901283,9.50569181 6.02956915,9.51644205 6.0401247,9.52739974 C6.06641603,9.55510307 6.09320333,9.5821857 6.1203896,9.6090617 C6.1308456,9.61960531 6.14120288,9.629944 6.15185875,9.64048675 C6.18860282,9.67604422 6.22574822,9.71139763 6.26358954,9.74592285 C6.31019568,9.7876815 6.34564752,9.81848672 6.38149747,9.84908358 C6.39404518,9.85962803 6.4067919,9.87017251 6.41953866,9.88071526 C6.44776502,9.90425654 6.47623616,9.92720506 6.50487043,9.94998419 C6.51865731,9.960908 6.53260733,9.97191651 6.54680211,9.98284035 C6.57804691,10.006805 6.60953648,10.030431 6.64135232,10.0538029 C6.65212077,10.0614242 6.66264448,10.0696382 6.6735761,10.0773442 C6.70653405,10.1008854 6.7399815,10.1238339 6.77359213,10.146359 C6.78623686,10.1550812 6.7987185,10.164142 6.8115264,10.1726101 C6.85786336,10.2030105 6.90468979,10.2329875 6.95208726,10.2619484 C6.96424256,10.2692309 6.97647942,10.2760054 6.98855315,10.2830339 C7.02420323,10.3045428 7.06001645,10.3256284 7.09648234,10.3458671 C7.11630608,10.357299 7.13661926,10.36763 7.15660618,10.3785539 C7.18646413,10.3944739 7.21640368,10.4108173 7.24666954,10.4261445 C7.25802208,10.4319333 7.26917638,10.4373097 7.28032909,10.4428901 C7.31886787,10.4621178 7.35760573,10.4807238 7.3967425,10.4991233 C7.40600419,10.5032566 7.41496646,10.5075948 7.42432768,10.5117356 C7.46984067,10.5324088 7.51594512,10.5522563 7.56235142,10.5712764 C7.57430032,10.5762379 7.58625085,10.5809927 7.59820138,10.585955 C7.64052464,10.6029073 7.68304858,10.6194463 7.72606851,10.6351588 C7.79397907,10.659762 7.84228045,10.6760944 7.89097667,10.6915995 C7.90342483,10.6955337 7.91587216,10.6994544 7.92852019,10.7033836 C7.97841398,10.7186829 8.02800432,10.7352219 8.07909082,10.7472127 C9.42832816,11.065782 10.8523736,10.7796455 11.6546228,9.69471466 C11.6546228,9.69471466 10.6994127,12.3685204 7.41095766,11.7460231 C7.35917939,11.7360994 7.30958256,11.7172867 7.25939181,11.7015742 C7.2475416,11.6980599 7.23569142,11.6941308 7.22394077,11.6906165 C7.17465066,11.6746973 7.12565341,11.6583658 7.07715542,11.640792 C7.01640832,11.6186801 6.97238986,11.6015204 6.92897181,11.5841532 C6.91761926,11.5796067 6.90626672,11.5750534 6.8950137,11.5703028 C6.8481057,11.5510752 6.80160394,11.5310211 6.75549706,11.5101413 C6.74703238,11.5062155 6.73876842,11.5022863 6.73020262,11.4983571 C6.68996778,11.4797502 6.6501335,11.4605234 6.61059946,11.4408826 C6.6003425,11.435507 6.58998602,11.4305422 6.57972826,11.4253766 C6.53680784,11.4034655 6.51191152,11.3896142 6.48681696,11.3759696 C6.46739789,11.3656326 6.44768019,11.3555022 6.42846016,11.344752 C6.39291123,11.3246979 6.35785747,11.3042306 6.32300278,11.28335 C6.31005782,11.2756999 6.29701168,11.2682632 6.28416624,11.2606081 C6.23676877,11.2316642 6.18986074,11.2016863 6.14365434,11.1712952 C6.13060819,11.162612 6.11776192,11.1533115 6.10481613,11.14442 C6.07473792,11.1241585 6.04456506,11.1038986 6.01508723,11.0828113 C5.99447626,11.0679236 5.98352099,11.0596562 5.97216928,11.051178 C5.94109984,11.0286427 5.91032819,11.0056942 5.87975642,10.9823333 C5.86501754,10.9707549 5.85037898,10.9591782 5.83573958,10.9476006 C5.80805651,10.925686 5.78057168,10.9033574 5.75338544,10.880823 C5.73974298,10.8694529 5.72599933,10.8582886 5.71245638,10.8469176 C5.67919821,10.8183836 5.64613661,10.7894397 5.61367219,10.7602892 C5.60749747,10.7547078 5.60102253,10.7493357 5.59475072,10.7435435 C5.55621194,10.7086017 5.52006259,10.6742831 5.48431296,10.6393437 C5.47345805,10.6290068 5.46270266,10.6180491 5.45184854,10.6072988 C5.42505962,10.5806303 5.39857085,10.5537534 5.37248022,10.5264642 C5.36172563,10.5155065 5.35106896,10.5043422 5.34061376,10.4931779 C5.30695094,10.4572029 5.27369034,10.4212305 5.24122592,10.3844307 C5.202196,10.3399911 5.16963286,10.3011243 5.13766608,10.26205 C5.12870381,10.2510923 5.1197399,10.2399297 5.11087875,10.2287653 C5.08707805,10.1989983 5.06367626,10.1692271 5.04067174,10.1392492 C5.03111149,10.1266386 5.0215545,10.114027 5.01209133,10.1014164 C4.98629926,10.0668895 4.96080579,10.0319501 4.93610851,9.99659843 C4.9315303,9.98998234 4.92655395,9.98357114 4.9220671,9.97695757 C4.89110294,9.93251453 4.86341904,9.89075334 4.83633152,9.84878467 C4.8279664,9.83596736 4.82000182,9.822736 4.81183411,9.80950461 C4.79221677,9.7784945 4.77299674,9.74748352 4.75427514,9.71605933 C4.74461536,9.69993354 4.73535366,9.68380778 4.72599248,9.66768285 C4.709064,9.638324 4.6925328,9.60896685 4.67639971,9.57940307 C4.66723837,9.56265744 4.65817491,9.54632419 4.64931379,9.52916534 C4.64433338,9.52006806 4.63895894,9.5107608 4.63417677,9.50125536 C4.62571213,9.48533622 4.61804614,9.46879722 4.60987843,9.45267142 C4.59713171,9.42724179 4.58418672,9.40181382 4.57183728,9.37597091 C4.05240496,8.29806861 3.96775843,6.97823315 4.64772054,5.96375677 L5.1784377,5.26500694 Z M8.7506935,4.16 C8.34965046,4.91205046 8.73144083,5.83549494 9.34605805,6.31953059 C9.4538241,6.40404208 9.57007437,6.47788374 9.69203517,6.53868458 C9.75623795,6.57069395 9.82231706,6.59897734 9.8893751,6.62378883 C9.94166733,6.64301136 10.0013017,6.66333478 10.0555518,6.67705306 C10.7423666,6.85008989 11.3021463,6.73059677 11.6352502,6.23276662 C11.5340105,6.38405738 11.1537702,7.41197261 9.75183267,7.13080685 C9.7209615,7.12481142 9.69128547,7.11344051 9.66141037,7.10372336 C9.65204835,7.1008383 9.64288538,7.09752726 9.63362614,7.0946312 C9.61241475,7.08718861 9.59150195,7.07996022 9.57058912,7.07189014 C9.06328928,6.87881786 8.62860298,6.47153693 8.41648909,5.95240954 C8.21533123,5.46329306 8.24381053,4.91333338 8.53370198,4.47049498 L8.7506935,4.16 Z" id="Oval-1"></path>
        </g>
    </g>
</svg>