<?xml version="1.0" encoding="UTF-8"?>
<svg width="18px" height="18px" viewBox="0 0 18 18" version="1.1" xmlns="http://www.w3.org/2000/svg" xmlns:xlink="http://www.w3.org/1999/xlink">
    <!-- Generator: Sketch 41.1 (35376) - http://www.bohemiancoding.com/sketch -->
    <title>Photoshop</title>
    <desc>Created with Sketch.</desc>
    <defs></defs>
    <g id="Symbols" stroke="none" stroke-width="1" fill="none" fill-rule="evenodd">
        <g id="Photoshop" transform="translate(1.000000, 1.000000)">
            <circle id="Oval" stroke="#FFFFFF" cx="8" cy="8" r="8"></circle>
            <path d="M4.32,4.928 C4.736,4.848 5.296,4.8 6.064,4.8 C6.896,4.8 7.52,4.976 7.92,5.312 C8.288,5.616 8.528,6.112 8.528,6.704 C8.528,7.296 8.336,7.792 7.984,8.128 C7.536,8.576 6.816,8.8 6,8.8 C5.792,8.8 5.584,8.784 5.44,8.768 L5.44,11.12 L4.32,11.12 L4.32,4.928 L4.32,4.928 Z M5.456,7.84 C5.6,7.872 5.776,7.888 6.016,7.888 C6.864,7.888 7.392,7.472 7.392,6.736 C7.392,6.032 6.912,5.664 6.112,5.664 C5.792,5.664 5.568,5.696 5.456,5.712 L5.456,7.84 Z" id="Shape" fill="#FFFFFF"></path>
            <path d="M9.04,10.064 C9.296,10.224 9.792,10.384 10.208,10.384 C10.704,10.384 10.928,10.176 10.928,9.888 C10.928,9.584 10.736,9.424 10.192,9.232 C9.312,8.928 8.944,8.448 8.944,7.92 C8.944,7.12 9.6,6.496 10.656,6.496 C11.152,6.496 11.6,6.624 11.856,6.768 L11.632,7.584 C11.44,7.472 11.072,7.328 10.672,7.328 C10.256,7.328 10.048,7.52 10.048,7.808 C10.048,8.096 10.256,8.24 10.832,8.432 C11.648,8.736 12.032,9.152 12.032,9.824 C12.032,10.64 11.392,11.232 10.192,11.232 C9.648,11.232 9.152,11.104 8.816,10.912 L9.04,10.064 Z" id="Shape" fill="#FFFFFF"></path>
        </g>
    </g>
</svg>