<?xml version="1.0" encoding="UTF-8"?>
<svg width="18px" height="18px" viewBox="0 0 18 18" version="1.1" xmlns="http://www.w3.org/2000/svg" xmlns:xlink="http://www.w3.org/1999/xlink">
    <!-- Generator: Sketch 41.1 (35376) - http://www.bohemiancoding.com/sketch -->
    <title>Premiere</title>
    <desc>Created with Sketch.</desc>
    <defs></defs>
    <g id="Symbols" stroke="none" stroke-width="1" fill="none" fill-rule="evenodd">
        <g id="Premiere" transform="translate(1.000000, 1.000000)">
            <circle id="Oval" stroke="#FFFFFF" cx="8" cy="8" r="8"></circle>
            <path d="M6.32,4.64 C5.712,4.64 5.184,4.688 4.752,4.768 L4.688,4.784 L4.688,11.04 L5.856,11.04 L5.856,8.72 C5.968,8.736 6.112,8.736 6.272,8.736 C7.04,8.736 7.696,8.496 8.096,8.048 C8.432,7.696 8.592,7.2 8.592,6.592 C8.592,6.016 8.384,5.504 8.016,5.168 C7.632,4.816 7.072,4.64 6.32,4.64 Z M7.408,6.64 C7.408,7.312 6.992,7.696 6.256,7.696 C6.112,7.696 5.952,7.696 5.84,7.664 L5.84,5.696 C5.936,5.68 6.096,5.664 6.352,5.664 C7.04,5.664 7.408,6.016 7.408,6.64 Z" id="Shape" fill="#FFFFFF"></path>
            <path d="M11.616,6.336 C11.536,6.32 11.472,6.304 11.36,6.304 C10.992,6.304 10.544,6.528 10.288,7.04 L10.256,6.4 L9.216,6.4 L9.216,6.48 C9.232,6.864 9.248,7.28 9.248,7.92 L9.248,11.04 L10.416,11.04 L10.416,8.64 C10.416,8.512 10.432,8.4 10.448,8.304 C10.544,7.808 10.848,7.52 11.28,7.52 C11.392,7.52 11.472,7.536 11.568,7.552 L11.664,7.568 L11.664,6.336 L11.616,6.336 L11.616,6.336 Z" id="Shape" fill="#FFFFFF"></path>
        </g>
    </g>
</svg>