<?xml version="1.0" encoding="UTF-8"?>
<svg width="18px" height="18px" viewBox="0 0 18 18" version="1.1" xmlns="http://www.w3.org/2000/svg" xmlns:xlink="http://www.w3.org/1999/xlink">
    <!-- Generator: Sketch 41.1 (35376) - http://www.bohemiancoding.com/sketch -->
    <title>RWD</title>
    <desc>Created with Sketch.</desc>
    <defs></defs>
    <g id="Symbols" stroke="none" stroke-width="1" fill="none" fill-rule="evenodd">
        <g id="RWD" transform="translate(1.000000, 1.000000)">
            <circle id="Oval" stroke="#FFFFFF" cx="8" cy="8" r="8"></circle>
            <g id="_x32_3" transform="translate(3.000000, 4.500000)" fill="#FFFFFF">
                <path d="M5.377664,6.207936 L5.48512,6.437792 C5.48512,6.437792 5.48512,6.505152 5.44016,6.505152 L2.86448,6.505152 C2.819712,6.505152 2.808576,6.437792 2.808576,6.437792 L2.915872,6.207936 L5.377664,6.207936 Z M5.37248,5.719904 L2.90944,5.719904 L2.90944,6.15168 L5.37248,6.15168 L5.37248,5.719904 Z M0.475232,4.614336 L0.475232,0.58032 L7.619328,0.58032 L7.619328,1.040032 L8.087904,1.040032 L8.087904,0.247168 C8.087904,0.123744 7.98704,0.022848 7.863584,0.022848 L0.249184,0.022848 C0.12576,0.022848 0.024896,0.123712 0.024896,0.247168 L0.024896,4.732768 L0.024896,4.838336 L0.024896,5.362656 C0.024896,5.500832 0.12576,5.61456 0.249184,5.61456 L6.268608,5.61456 L6.268608,4.614368 L0.475232,4.614368 L0.475232,4.614336 Z" id="Shape"></path>
                <path d="M8.906848,1.309152 L7.077856,1.309152 C6.780448,1.309152 6.537376,1.552384 6.537376,1.849248 L6.537376,5.964512 C6.537376,6.261728 6.780448,6.505152 7.077856,6.505152 L8.906848,6.505152 C9.204064,6.505152 9.447136,6.26176 9.447136,5.964512 L9.447136,1.849248 C9.447136,1.552384 9.204064,1.309152 8.906848,1.309152 Z M7.659776,1.47364462 C7.659776,1.45195231 7.689664,1.43376 7.72608,1.43376 L8.25856,1.43376 C8.29504,1.43376 8.324864,1.45191385 8.324864,1.47364462 L8.324864,1.49387538 C8.324864,1.51556769 8.295008,1.53376 8.25856,1.53376 L7.72608,1.53376 C7.689632,1.53376 7.659776,1.51560615 7.659776,1.49387538 L7.659776,1.47364462 Z M8.054752,1.662624 C8.054752,1.696992 8.026624,1.72496 7.992256,1.72496 C7.957888,1.72496 7.92976,1.696992 7.92976,1.662624 C7.92976,1.627904 7.957888,1.599936 7.992256,1.599936 C8.026624,1.599936 8.054752,1.627904 8.054752,1.662624 Z M8.324864,6.230496 C8.324864,6.267136 8.295008,6.297152 8.25856,6.297152 L7.72608,6.297152 C7.689632,6.297152 7.659776,6.267136 7.659776,6.230496 L7.659776,6.197344 C7.659776,6.160864 7.689664,6.1312 7.72608,6.1312 L8.25856,6.1312 C8.29504,6.1312 8.324864,6.160896 8.324864,6.197344 L8.324864,6.230496 Z M9.222976,5.964544 L6.800064,5.964544 L6.800064,1.849248 L9.222976,1.849248 L9.222976,5.964544 Z" id="Shape"></path>
            </g>
        </g>
    </g>
</svg>