<?xml version="1.0" encoding="UTF-8"?>
<svg width="17px" height="18px" viewBox="0 0 17 18" version="1.1" xmlns="http://www.w3.org/2000/svg" xmlns:xlink="http://www.w3.org/1999/xlink">
    <!-- Generator: Sketch 41.1 (35376) - http://www.bohemiancoding.com/sketch -->
    <title>sass</title>
    <desc>Created with Sketch.</desc>
    <defs></defs>
    <g id="Symbols" stroke="none" stroke-width="1" fill="none" fill-rule="evenodd">
        <g id="sass" transform="translate(0.000000, 1.000000)">
            <circle id="Oval" stroke="#FFFFFF" cx="8.46305455" cy="8.04567273" r="7.81992727"></circle>
            <path d="M12.5602182,4.55418182 C12.5267636,4.36858182 12.4546182,4.18909091 12.3344727,4.02414545 C11.9379636,3.47985455 11.2284364,3.28232727 10.5922182,3.2096 C9.86756364,3.12669091 9.11934545,3.17352727 8.41069091,3.34632727 C8.21461818,3.39432727 8.02145455,3.4528 7.83207273,3.52203636 C7.38349091,3.6864 6.96545455,3.92465455 6.56952727,4.19054545 C6.20065455,4.43869091 5.83498182,4.70021818 5.50392727,4.99781818 C5.08472727,5.37483636 4.74901818,5.85483636 4.55003636,6.38370909 C4.44414545,6.68305455 4.36327273,7.03738182 4.43134545,7.42312727 C4.49389091,7.78065455 4.64487273,8.09949091 4.82901818,8.36014545 C5.01229091,8.62283636 5.21912727,8.83927273 5.42305455,9.0304 C5.81316364,9.39578182 6.19658182,9.69134545 6.49563636,9.99738182 C6.38218182,10.0439273 6.26756364,10.0928 6.15032727,10.1480727 C6.04996364,10.1989818 5.94901818,10.2452364 5.84632727,10.3028364 C5.74392727,10.3674182 5.65258182,10.4340364 5.56094545,10.5056 C5.37970909,10.6501818 5.20341818,10.8090182 5.04341818,11.0036364 C4.88574545,11.1979636 4.7304,11.4228364 4.66,11.728 C4.63905455,11.8016 4.63585455,11.8850909 4.62945455,11.9656727 C4.63061818,12.0410182 4.6312,12.1137455 4.64458182,12.1937455 C4.66727273,12.3496727 4.72545455,12.528 4.85112727,12.6801455 C4.97069091,12.8305455 5.1656,12.9416727 5.30872727,12.9739636 C5.46203636,13.0330182 5.62174545,13.0432 5.78058182,13.0507636 C6.09709091,13.0464 6.38741818,12.9509818 6.65185455,12.8194909 C6.91890909,12.6824727 7.15047273,12.5154909 7.36138182,12.2673455 C7.47454545,12.1469091 7.55250909,12.0011636 7.63047273,11.8539636 C7.69738182,11.7099636 7.74421818,11.5677091 7.78232727,11.4117818 C7.86,11.1042909 7.85447273,10.7461818 7.75323636,10.4212364 C7.71803636,10.3048727 7.66916364,10.1972364 7.61534545,10.0939636 C7.67149091,10.0750545 7.73054545,10.0520727 7.78407273,10.0360727 C8.25301818,9.89469091 8.85869091,9.86530909 9.30494545,10.0992 C9.43149091,10.1655273 9.5336,10.2586182 9.64414545,10.3470545 C9.72676364,10.4136727 9.77534545,10.5064727 9.8312,10.5937455 C9.95570909,10.7880727 9.9464,11.0539636 9.86698182,11.2628364 C9.82770909,11.3658182 9.7896,11.4734545 9.70174545,11.5444364 C9.66712727,11.5729455 9.46523636,11.6657455 9.49112727,11.7352727 C9.51352727,11.7949091 9.59207273,11.8510545 9.82101818,11.7137455 C10.3062545,11.4228364 10.3673455,10.7700364 10.1002909,10.3118545 C9.89170909,9.95461818 9.54145455,9.71607273 9.14843636,9.6032 C8.93490909,9.54210909 8.7016,9.50516364 8.47905455,9.4976 C8.27978182,9.49061818 8.07789091,9.49789091 7.88269091,9.53890909 C7.82567273,9.55083636 7.37098182,9.70996364 7.35672727,9.69163636 C7.32967273,9.65614545 7.30261818,9.62007273 7.27527273,9.58632727 C6.87963636,9.12465455 6.43105455,8.78690909 6.05258182,8.42443636 C5.7192,8.11287273 5.33403636,7.70210909 5.30581818,7.22036364 C5.27178182,6.63563636 5.77563636,6.07505455 6.16225455,5.69367273 C6.28763636,5.57003636 6.42174545,5.45483636 6.56109091,5.34749091 C7.18683636,4.864 7.95512727,4.48174545 8.70247273,4.23069091 C8.91512727,4.15912727 9.13243636,4.09861818 9.35178182,4.05061818 C9.6584,3.984 9.98014545,3.94996364 10.2937455,3.95054545 C10.7356364,3.95083636 11.1786909,4.02530909 11.5458182,4.28887273 C11.7733091,4.45207273 11.8943273,4.70109091 11.8870545,4.98065455 C11.8661091,5.78792727 11.0928727,6.42996364 10.4150545,6.72930909 C9.65316364,7.06618182 8.63643636,7.35883636 8.02698182,7.08072727 C7.72763636,6.94429091 7.44225455,6.6944 7.36021818,6.8288 C7.29941818,6.92829091 7.95367273,7.36843636 8.01912727,7.40363636 C8.61432727,7.72421818 9.55745455,7.63490909 10.2792,7.41672727 C11.0762909,7.17585455 11.7992,6.65425455 12.2361455,5.93978182 C12.4854545,5.53076364 12.6457455,5.02312727 12.5602182,4.55418182 Z M7.012,11.0013091 C7.012,11.1650909 6.97650909,11.3396364 6.92007273,11.5089455 C6.85490909,11.6514909 6.79556364,11.7748364 6.68007273,11.8923636 C6.45810909,12.1344 6.17069091,12.2891636 5.92370909,12.3138909 C5.89141818,12.3232 5.86349091,12.3150545 5.83381818,12.3144727 C5.80530909,12.3104 5.77389091,12.3168 5.74770909,12.3072 C5.69796364,12.2888727 5.63047273,12.2769455 5.60836364,12.2606545 C5.58334545,12.2420364 5.56414545,12.2266182 5.54610909,12.1957818 C5.53098182,12.1617455 5.51294545,12.1175273 5.50538182,12.0564364 C5.50014545,12.0282182 5.49956364,11.9921455 5.49752727,11.9627636 C5.50014545,11.936 5.49665455,11.9109818 5.50130909,11.8827636 C5.50858182,11.8272 5.52138182,11.7675636 5.54407273,11.7056 C5.588,11.5822545 5.65898182,11.456 5.74130909,11.3376 C5.90741818,11.1048727 6.11483636,10.8794182 6.32283636,10.7333818 C6.49098182,10.6202182 6.67221818,10.5149091 6.85432727,10.4162909 C6.96021818,10.6103273 7.01723636,10.8037818 7.012,11.0013091 Z" id="Shape" fill="#FFFFFF"></path>
        </g>
    </g>
</svg>