<?xml version="1.0" encoding="UTF-8"?>
<svg width="18px" height="18px" viewBox="0 0 18 18" version="1.1" xmlns="http://www.w3.org/2000/svg" xmlns:xlink="http://www.w3.org/1999/xlink">
    <!-- Generator: Sketch 41.1 (35376) - http://www.bohemiancoding.com/sketch -->
    <title>sketch</title>
    <desc>Created with Sketch.</desc>
    <defs></defs>
    <g id="Symbols" stroke="none" stroke-width="1" fill="none" fill-rule="evenodd">
        <g id="sketch" transform="translate(1.000000, 1.000000)">
            <ellipse id="Oval" stroke="#FFFFFF" cx="7.99788873" cy="7.90999985" rx="7.99788873" ry="7.90999985"></ellipse>
            <path d="M11.8662526,6.14935748 L10.6607763,5.24622771 C10.6336998,5.21831725 10.603191,5.19512139 10.5696314,5.17814881 L9.75752706,4.56958757 C9.69727231,4.52470453 9.62386067,4.5 9.54816087,4.5 L6.45610068,4.5 C6.38059156,4.5 6.30698924,4.52470453 6.24654381,4.56958757 L4.13781825,6.14935748 C3.98451186,6.26420526 3.95457517,6.48051135 4.07088971,6.63232164 L7.72545469,11.3840779 C7.86446011,11.5653073 8.13942008,11.5653073 8.27823482,11.3840779 L11.9326091,6.63232164 C12.0496864,6.48051135 12.018987,6.26420526 11.8662526,6.14935748 Z M6.57279658,5.18795519 L9.43127428,5.18795519 L9.82502763,5.48290089 L9.31553177,5.85610904 L6.82697247,5.83649628 L6.19868323,5.46781415 L6.57279658,5.18795519 Z M4.8351335,6.48956339 L5.60033069,5.91645598 L6.23662847,6.28966413 L5.50556293,7.36157677 L4.8351335,6.48956339 Z M8.00213077,10.6078653 L6.10010189,8.1349606 L9.90396898,8.1349606 L8.00213077,10.6078653 Z M6.28544245,7.44700541 L6.91430373,6.52501722 L9.24993799,6.54349847 L9.90549442,7.44700541 L6.28544245,7.44700541 Z M10.602047,7.22749339 L9.91083345,6.2757089 L10.4025961,5.91551306 L11.169128,6.48975197 L10.602047,7.22749339 Z" id="Shape" fill="#FFFFFF"></path>
        </g>
    </g>
</svg>